<?xml version="1.0" encoding="UTF-8" standalone="no"?>
<!DOCTYPE svg PUBLIC "-//W3C//DTD SVG 1.1//EN" "http://www.w3.org/Graphics/SVG/1.1/DTD/svg11.dtd">
<svg width="100%" height="100%" viewBox="0 0 1884 1652" version="1.1" xmlns="http://www.w3.org/2000/svg" xmlns:xlink="http://www.w3.org/1999/xlink" xml:space="preserve" xmlns:serif="http://www.serif.com/" style="fill-rule:evenodd;clip-rule:evenodd;stroke-linejoin:round;stroke-miterlimit:1.41421;">
    <g id="Plan-de-travail1" serif:id="Plan de travail1" transform="matrix(0.993333,0,0,1.00927,-541.875,-33.1746)">
        <rect x="545.512" y="32.87" width="1896.33" height="1635.9" style="fill:none;"/>
        <g transform="matrix(0.877413,0,0,0.863556,101.928,-146.35)">
            <path d="M1115.45,1200C1062.44,1175.94 1059.08,1017.97 1008.75,982.799C1007.56,981.969 1006.24,981.359 1004.97,980.699C799.314,874.019 557.848,817.027 527.769,577.4C681.921,398.463 1051.9,259.116 1268.84,234.769C1191.51,282.734 1165.82,354.892 1333.87,354.421C1449.53,252.982 1716.8,235.936 1872.6,354.421C2043.29,330.3 1961.82,264.376 1907.07,234.769C2160.73,286.682 2581.17,508.181 2634.33,585.6C2583.3,828.762 2334.01,910.167 2155.32,1019.15C2152.86,1020.66 2149.79,1021.65 2148.04,1024.04C2101.56,1087.47 2120.93,1191.44 2085.41,1206.88L1932.32,897.432C1901.85,816.27 1894.45,793.937 1907.07,758.648C1919.7,723.36 1991.06,706.241 2008.08,685.7C2025.73,664.394 2044.03,647.98 2021.85,585.6C2018.93,618.718 2010.16,633.602 2008.08,639.232C2008.03,639.35 2007.87,639.491 2007.8,639.736C2006.9,642.775 2000.35,652.171 1998.06,654.22C1997.88,654.381 1997.79,654.555 1997.71,654.645C1962.9,691.538 1887.42,703.737 1872.6,743.732C1853.09,796.398 1876.44,857.72 1894.4,918.084L2036.32,1227.41L2002.35,1253.41C2021.73,1325.05 2017.97,1589.81 1872.6,1729.89C1915.95,1651.54 1977.67,1455.99 1894.4,1298.86C1894.4,1298.86 1869.81,1320.23 1860.75,1299.24C1844.24,1261.01 1780.2,986.711 1760.57,1066.94C1760.08,1068.92 1758.48,1071.09 1759.11,1073.34C1765.33,1095.67 1760.87,1126.17 1751.53,1163.01C1750.97,1165.23 1745.79,1168.88 1743.46,1168.77C1643.58,1164.1 1664.45,1179.17 1746.26,1202.4C1748.33,1202.98 1747.38,1206.8 1748.07,1208.87C1754.98,1229.55 1748.29,1249.79 1743.46,1271.28C1742.82,1274.12 1744.11,1274.04 1741.16,1274C1643.63,1272.78 1649.03,1288.37 1738.57,1306.39C1741.43,1306.97 1740.43,1307.72 1741.16,1310.57C1747.41,1334.71 1743.87,1364.28 1734.61,1389.83C1734.26,1390.81 1733.13,1392.96 1732.08,1392.95C1661.49,1392.81 1630.65,1400.55 1730.31,1419.45C1731.24,1419.62 1732.19,1421.35 1732.39,1422.27C1737.36,1444.77 1738.05,1464.18 1727.02,1487.26C1726.44,1488.46 1722.29,1491.16 1720.96,1491.25C1645.72,1496.16 1632.03,1504.07 1722.18,1518.69C1723.48,1518.9 1723.9,1521.34 1724.15,1522.64C1728.73,1546.31 1730.05,1569.6 1718.4,1590.99C1717.84,1592.02 1716.96,1594.37 1715.8,1594.47C1630.42,1601.98 1645.5,1611.05 1713.12,1622.58C1714.25,1622.78 1714.9,1624.88 1715.1,1626.01C1720.6,1655.93 1714.31,1685.81 1707.15,1712.58C1706.71,1714.22 1706.03,1717.55 1704.35,1717.62C1646.19,1720.04 1639.87,1729.13 1701.34,1747.02C1702.58,1747.38 1702.98,1749.6 1703.23,1750.87C1708.87,1778.92 1704.21,1805.37 1694.29,1830.2C1693.84,1831.31 1692.74,1833.64 1691.56,1833.73C1635.86,1838.3 1627.31,1848.19 1687.76,1863.75C1689.16,1864.11 1689.31,1866.61 1689.49,1868.04C1692.99,1895.83 1691.48,1921.55 1678.12,1944.41C1677.44,1945.58 1676.48,1948.31 1675.15,1948.38C1633.11,1950.83 1645.23,1961.41 1670.54,1973.65C1671.52,1974.13 1672.17,1975.77 1672.21,1976.85C1672.91,1998.06 1670.51,2015.89 1659.94,2028.54C1658.5,2030.27 1657.66,2034.59 1658.79,2036.36C1665.18,2046.3 1660.35,2065.59 1644.33,2073.03C1623.98,2082.47 1548.23,2082.02 1532.76,2074.94C1531.47,2074.35 1531.69,2074.33 1530.46,2073.8C1524.55,2071.22 1510.42,2050.72 1516.11,2037.12C1517.15,2034.66 1517.75,2031.62 1516.11,2029.31C1506.03,2015.07 1501.76,1998.47 1503.14,1979.9C1503.21,1978.9 1503.9,1977.39 1504.81,1976.94C1531.18,1963.71 1546.07,1952.17 1499.79,1951.18C1498.41,1951.16 1497.48,1948.28 1496.76,1947.08C1482.79,1923.7 1479.97,1898.29 1485.56,1871.31C1485.86,1869.87 1485.88,1867.3 1487.31,1866.92C1550.47,1849.8 1544.23,1840.86 1483.93,1837.81C1482.79,1837.76 1481.78,1835.42 1481.26,1834.39C1468.02,1808.46 1460.93,1781.88 1473.76,1756.21C1474.5,1754.74 1474.07,1751.79 1475.64,1751.27C1532.1,1732.5 1536.29,1720.39 1472.94,1717.33C1471.77,1717.27 1470.76,1714.93 1470.38,1713.82C1461.23,1687.41 1454.91,1651.3 1464.94,1624.32C1465.34,1623.23 1465.88,1621.06 1467.02,1620.85C1520.82,1610.55 1551.11,1606.28 1464.82,1592.12C1463.85,1591.95 1462.71,1590.08 1462.36,1589.15C1454.38,1567.89 1450.68,1546.59 1459.07,1525.36C1459.44,1524.43 1460.24,1522.56 1461.22,1522.35C1533.51,1506.62 1544.01,1494.86 1460.81,1489.01C1459.65,1488.92 1457.71,1486.56 1457.21,1485.5C1445.66,1460.75 1446.84,1438.56 1454.11,1414.55C1454.33,1413.85 1456.73,1412.4 1457.47,1412.35C1544.02,1406.96 1535.39,1396.69 1455.45,1387.97C1454.51,1387.87 1453.38,1386.02 1453.04,1385.14C1441.5,1354.65 1439.71,1328.46 1449.85,1302.69C1450.23,1301.74 1451.02,1299.76 1452.03,1299.63C1543.87,1287.61 1525.41,1276.96 1451.04,1270.56C1450.09,1270.48 1448.88,1268.62 1448.64,1267.7C1441.08,1239.55 1435.89,1213.19 1445.56,1189.17C1446.32,1187.27 1445.58,1183.23 1447.59,1183.09C1527.25,1177.45 1545.4,1168.59 1448.64,1155.81C1446.8,1155.57 1444.44,1151.99 1443.78,1150.3C1430.7,1116.45 1431.45,1090.22 1438.41,1073.34C1439.2,1071.44 1437.42,1069.46 1436.92,1067.7C1413.79,986.547 1356.88,1264.79 1333.87,1303.83C1327.94,1313.9 1298.87,1301.92 1298.87,1301.92C1195.73,1550.13 1320.03,1719.74 1333.87,1747.02C1226.15,1662.91 1175.6,1534.9 1194.96,1243.47L1176.87,1200L1298.87,933C1317.28,885.094 1351.19,810.811 1333.87,752.911C1331.82,746.041 1328.42,739.626 1324.02,733.513C1291.3,688.109 1202.9,659.436 1194.96,585.6C1159.87,627.502 1197.31,657.191 1228.53,685.7C1253.31,708.325 1289.73,733.686 1296.07,767.827C1302.4,801.968 1281.25,846.381 1266.55,890.548C1231.9,994.651 1113.52,1221.19 1115.45,1200Z" style="fill:white;"/>
        </g>
    </g>
</svg>
